<?xml version="1.0" standalone="no"?>
<!DOCTYPE svg PUBLIC "-//W3C//DTD SVG 20010904//EN"
 "http://www.w3.org/TR/2001/REC-SVG-20010904/DTD/svg10.dtd">
<svg version="1.0" xmlns="http://www.w3.org/2000/svg"
 width="225.000000pt" height="225.000000pt" viewBox="0 0 225.000000 225.000000"
 preserveAspectRatio="xMidYMid meet">
  <linearGradient id="mon-degrade" x1="0%" y1="0%" x2="75%" y2="100%">
    <stop offset="50%" stop-color="#020426"/>
    <stop offset="100%" stop-color="#f1f1f1"/>
  </linearGradient>
<g transform="translate(0.000000,225.000000) scale(0.100000,-0.100000)"
fill="url(#mon-degrade)" stroke="none">
<path d="M196 1954 l-49 -15 24 -24 c13 -13 233 -206 488 -429 403 -352 467
-404 480 -392 9 7 229 199 490 427 l474 413 -34 16 c-30 13 -150 15 -929 17
-775 2 -902 0 -944 -13z"/>
<path d="M22 1793 c-15 -35 -17 -97 -17 -668 0 -542 2 -635 15 -664 l15 -33
350 391 c193 216 351 395 353 400 3 8 -682 611 -693 611 -3 0 -14 -17 -23 -37z"/>
<path d="M1855 1530 c-187 -164 -340 -303 -340 -309 0 -5 157 -186 350 -402
l349 -392 16 34 c13 29 15 122 17 649 2 560 1 619 -15 664 -9 27 -21 51 -27
52 -5 1 -163 -132 -350 -296z"/>
<path d="M499 733 c-195 -218 -354 -401 -354 -407 0 -6 23 -19 50 -28 46 -16
127 -17 930 -17 803 0 884 1 930 17 28 9 50 22 50 28 0 6 -159 189 -354 407
l-353 396 -118 -104 c-65 -56 -127 -106 -139 -110 -29 -9 -53 6 -177 116
l-111 98 -354 -396z"/>
</g>
</svg>
